<svg width="20" height="20" viewBox="0 0 20 20" fill="none" xmlns="http://www.w3.org/2000/svg">
  <path d="M19.615 6.615c.308-.463.385-.77.385-1.846C20 3.077 19.077 2 17.846 2H2.154C.923 2 0 3.077 0 4.769c0 1.077.077 1.384.385 1.846C.692 6.923 1 7.077 1 8.769v2.462c0 1.692-.308 1.846-.615 2.154-.308.462-.385.769-.385 1.846C0 16.923.923 18 2.154 18h15.692C18.077 18 19 16.923 19 15.231c0-1.077-.077-1.384-.385-1.846-.307-.308-.615-.462-.615-2.154V8.769c0-1.692.308-1.846.615-2.154zM8 13V7l6 3-6 3z" fill="currentColor"/>
</svg>