<svg width="20" height="20" viewBox="0 0 20 20" fill="none" xmlns="http://www.w3.org/2000/svg">
  <path d="M10 0C4.48 0 0 4.48 0 10s4.48 10 10 10 10-4.48 10-10S15.52 0 10 0zM16.93 6.22c1.36 1.64 1.89 3.75 1.61 5.82-.28-.06-3.06-.62-5.84-.27-.12-.3-.25-.6-.39-.89 2.53-1.03 3.84-2.48 4.62-4.66zm-5.94.69c.17.33.33.67.48 1 .04.1.08.19.12.29-2.91.78-5.8.77-6.07.77 0-.1-.01-.19-.01-.28 0-2.27.86-4.35 2.28-5.93.54.55 2.06 2.15 3.2 4.15zM1.46 10c0-.04 0-.09.01-.13.27 0 3.5.04 6.64-.88.16.31.31.63.45.95-2.94 1.24-4.49 3.65-4.49 3.65s.01.02.02.03c-.95-1.46-1.47-3.19-1.47-5.02h-.01c-.01-.2-.01-.4-.15-.6zm9.32 6.8c-1.86 1.32-4.29 1.54-6.36.7-.05-.02-.09-.05-.13-.08 0 0 1.41-2.24 4.58-3.56.04-.02.09-.03.14-.05.3.78.56 1.6.77 2.44.02.07.03.14.05.21-.35.11-.69.23-1.05.34zm2.63-1.38c-.21-.73-.45-1.45-.71-2.16 2.58-.33 5.15.21 5.4.27-.18 2.26-1.29 4.21-3.03 5.49-.02 0-.01-.01-.01-.02s-.97-2.27-1.65-3.58z" fill="currentColor"/>
</svg>